<?xml version="1.0" standalone="no"?>
<!DOCTYPE svg PUBLIC "-//W3C//DTD SVG 20010904//EN"
 "http://www.w3.org/TR/2001/REC-SVG-20010904/DTD/svg10.dtd">
<svg version="1.0" xmlns="http://www.w3.org/2000/svg"
 width="300.000000pt" height="300.000000pt" viewBox="0 0 300.000000 300.000000"
 preserveAspectRatio="xMidYMid meet">
<metadata>
Created by potrace 1.11, written by Peter Selinger 2001-2013
</metadata>
<g transform="translate(0.000000,300.000000) scale(0.100000,-0.100000)"
fill="#000000" stroke="none">
<path d="M1370 2684 c-219 -36 -396 -142 -529 -317 -124 -165 -171 -316 -166
-536 1 -75 5 -147 7 -161 25 -132 71 -244 138 -335 47 -64 83 -101 186 -192
70 -61 167 -176 212 -251 38 -62 167 -330 248 -514 16 -37 31 -68 34 -68 6 0
13 16 120 253 150 336 224 443 445 645 134 121 218 262 245 411 5 31 12 67 15
81 15 77 5 301 -16 357 -5 13 -7 23 -5 23 12 0 -59 162 -99 225 -175 281 -509
432 -835 379z m368 -604 l243 -145 -61 -3 -60 -3 0 -247 0 -247 -355 0 c-307
0 -356 2 -359 15 -2 8 -4 105 -4 215 0 110 -1 215 -1 233 l-1 32 -62 0 -63 0
65 39 c83 51 363 233 370 242 6 7 33 18 41 16 3 -1 114 -67 247 -147z"/>
<path d="M1365 2016 l-120 -81 1 -180 c1 -99 2 -185 3 -190 1 -7 91 -10 254
-10 l253 0 0 190 -1 190 -110 68 c-175 108 -142 106 -280 13z"/>
</g>
</svg>
